<svg width="32" height="32" viewBox="0 0 32 32" fill="none" xmlns="http://www.w3.org/2000/svg">
  <!-- Background circle -->
  <circle cx="16" cy="16" r="16" fill="#0EA5E9"/>
  
  <!-- Hotel building outline -->
  <rect x="6" y="10" width="20" height="18" fill="#ffffff" rx="1"/>
  
  <!-- Hotel floors/windows -->
  <rect x="8" y="12" width="2" height="2" fill="#0EA5E9"/>
  <rect x="11" y="12" width="2" height="2" fill="#0EA5E9"/>
  <rect x="14" y="12" width="2" height="2" fill="#0EA5E9"/>
  <rect x="17" y="12" width="2" height="2" fill="#0EA5E9"/>
  <rect x="20" y="12" width="2" height="2" fill="#0EA5E9"/>
  
  <rect x="8" y="15" width="2" height="2" fill="#0EA5E9"/>
  <rect x="11" y="15" width="2" height="2" fill="#0EA5E9"/>
  <rect x="14" y="15" width="2" height="2" fill="#0EA5E9"/>
  <rect x="17" y="15" width="2" height="2" fill="#0EA5E9"/>
  <rect x="20" y="15" width="2" height="2" fill="#0EA5E9"/>
  
  <rect x="8" y="18" width="2" height="2" fill="#0EA5E9"/>
  <rect x="11" y="18" width="2" height="2" fill="#0EA5E9"/>
  <rect x="14" y="18" width="2" height="2" fill="#0EA5E9"/>
  <rect x="17" y="18" width="2" height="2" fill="#0EA5E9"/>
  <rect x="20" y="18" width="2" height="2" fill="#0EA5E9"/>
  
  <!-- Hotel entrance/door -->
  <rect x="13" y="21" width="6" height="7" fill="#0EA5E9"/>
  <rect x="14" y="22" width="4" height="6" fill="#ffffff"/>
  
  <!-- AI/Tech accent (small circuit pattern) -->
  <circle cx="23" cy="9" r="2" fill="#ffffff" opacity="0.9"/>
  <circle cx="23" cy="9" r="1" fill="#0EA5E9"/>
  <line x1="21" y1="9" x2="25" y2="9" stroke="#ffffff" stroke-width="0.5" opacity="0.7"/>
  <line x1="23" y1="7" x2="23" y2="11" stroke="#ffffff" stroke-width="0.5" opacity="0.7"/>
</svg> 